Coordinates
version=1
nRows=11
nColumns=40
inDegrees=yes

Units are S.I. units (second, meters, Newtons, ...)
Angles are in degrees.

endheader
time	pelvis_tilt	pelvis_list	pelvis_rotation	pelvis_tx	pelvis_ty	pelvis_tz	hip_flexion_r	hip_adduction_r	hip_rotation_r	knee_angle_r	knee_angle_r_beta	ankle_angle_r	subtalar_angle_r	mtp_angle_r	hip_flexion_l	hip_adduction_l	hip_rotation_l	knee_angle_l	knee_angle_l_beta	ankle_angle_l	subtalar_angle_l	mtp_angle_l	lumbar_extension	lumbar_bending	lumbar_rotation	arm_flex_r	arm_add_r	arm_rot_r	elbow_flex_r	pro_sup_r	wrist_flex_r	wrist_dev_r	arm_flex_l	arm_add_l	arm_rot_l	elbow_flex_l	pro_sup_l	wrist_flex_l	wrist_dev_l
      0.83000000	     -1.07192171	     -4.53638085	      5.70305906	      1.04277448	      0.93205823	      0.50515197	     10.46940831	      2.22383909	    -15.63170255	     18.66060532	     18.66060532	     10.99792795	     -1.69207742	     -3.73401886	     29.21283203	    -12.80360468	      0.29207495	     57.71449387	     57.71449387	     10.25967207	    -18.18131442	     11.64360978	    -10.16066171	      6.34670449	      2.92984420	     15.56819878	    -19.38360327	     -2.45819934	     61.95409488	     45.66302075	      0.00000000	      0.00000000	      5.05468553	    -10.67696593	     -4.57994565	     38.41148856	     45.61408155	      0.00000000	      0.00000000
      0.84321429	     -1.18598934	     -4.43967639	      6.09691259	      1.04137690	      0.93255081	      0.50554329	      9.96909990	      2.24522036	    -15.87492876	     18.07056562	     18.07056562	     11.05373507	     -1.70774806	     -3.69566424	     30.16283712	    -12.76543417	     -0.03132823	     54.94938824	     54.94938824	     10.44957116	    -18.35632268	     11.82794564	    -10.14359590	      6.17374690	      2.77811283	     16.89237817	    -19.18023643	     -2.47747725	     63.30584983	     45.62056501	      0.00000000	      0.00000000	      4.21949474	    -10.79705935	     -4.54674668	     37.49249912	     45.60343591	      0.00000000	      0.00000000
      0.85642857	     -1.30296142	     -4.34461784	      6.47832836	      1.03997911	      0.93297223	      0.50589194	      9.45535497	      2.27931686	    -16.08893152	     17.44101941	     17.44101941	     11.09670245	     -1.67759587	     -3.72218689	     30.87988328	    -12.62590641	     -0.31208807	     51.84260209	     51.84260209	     10.53971240	    -18.41235888	     11.92912411	    -10.15837512	      6.01914513	      2.62963627	     18.18272071	    -19.02229378	     -2.37636090	     65.03962588	     45.56090299	      0.00000000	      0.00000000	      3.40490644	    -10.89883175	     -4.52584999	     36.37791198	     45.59536716	      0.00000000	      0.00000000
      0.86964286	     -1.43026369	     -4.25732257	      6.81552085	      1.03857305	      0.93328935	      0.50617240	      8.99343547	      2.30672912	    -16.29173591	     16.87304537	     16.87304537	     11.11693949	     -1.63797537	     -3.80610146	     31.39872440	    -12.39771427	     -0.53838403	     48.48291233	     48.48291233	     10.54109212	    -18.35526407	     12.03233657	    -10.17946611	      5.86985257	      2.59146399	     19.36948168	    -18.97006957	     -2.22962593	     66.82763576	     45.49870780	      0.00000000	      0.00000000	      2.70204056	    -10.95471249	     -4.51181532	     35.25249831	     45.59027146	      0.00000000	      0.00000000
      0.88285714	     -1.54679290	     -4.20613720	      7.14654656	      1.03716787	      0.93348647	      0.50627125	      8.53021039	      2.35684597	    -16.52503775	     16.31033792	     16.31033792	     11.10939588	     -1.53246859	     -4.00927924	     31.74341899	    -12.07017857	     -0.54678295	     44.96282112	     44.96282112	     10.39155747	    -18.18593566	     11.92240675	    -10.22615758	      5.80151296	      2.56415683	     20.51586719	    -19.02319525	     -1.99463058	     69.02315044	     45.42005513	      0.00000000	      0.00000000	      2.11292750	    -10.92174627	     -4.48509753	     33.90351871	     45.58814234	      0.00000000	      0.00000000
      0.89607143	     -1.69347575	     -4.14581533	      7.41553801	      1.03568536	      0.93357011	      0.50628998	      8.14542808	      2.37483464	    -16.73883476	     15.81427793	     15.81427793	     11.09338670	     -1.41261239	     -4.30925810	     31.97771036	    -11.68517185	     -0.48522030	     41.36590380	     41.36590380	     10.06514375	    -17.77508189	     11.60805998	    -10.26653162	      5.71321733	      2.71039605	     21.49099546	    -19.16668040	     -1.78091259	     71.23203071	     45.34253078	      0.00000000	      0.00000000	      1.65211172	    -10.86067659	     -4.44332255	     32.57133667	     45.58843409	      0.00000000	      0.00000000
      0.90928571	     -1.96349209	     -4.11331450	      7.61238724	      1.03420773	      0.93327782	      0.50618478	      7.99857311	      2.38261811	    -16.87884429	     15.50851151	     15.50851151	     11.21113120	     -1.43506214	     -4.42276257	     32.29151614	    -11.29665650	     -0.34771516	     37.93249283	     37.93249283	     10.09089426	    -16.92072159	     11.78855527	    -10.08499588	      5.61280641	      3.01071005	     22.68833328	    -19.29777811	     -1.85994918	     72.32887334	     45.31432537	      0.00000000	      0.00000000	      1.03234952	    -10.72247553	     -4.38766703	     32.00943995	     45.57500177	      0.00000000	      0.00000000
      0.92250000	     -1.99218705	     -4.08032401	      7.79801733	      1.03291714	      0.93334958	      0.50593359	      7.50858761	      2.42125122	    -17.06754908	     15.07109149	     15.07109149	     11.26512424	     -1.21626532	     -4.67522013	     32.16947651	    -10.88619291	     -0.00428460	     34.45414900	     34.45414900	      9.90445447	    -15.93203492	     11.54695128	    -10.24082634	      5.57425367	      2.92148452	     23.87400204	    -19.02114123	     -1.71139006	     74.43504546	     45.24532651	      0.00000000	      0.00000000	      0.35827415	    -10.74407529	     -4.25208447	     30.99379265	     45.55434034	      0.00000000	      0.00000000
      0.93571429	     -2.16240670	     -4.11221745	      7.93076873	      1.03151378	      0.93305624	      0.50553193	      7.22773265	      2.48091683	    -17.24892294	     14.69960445	     14.69960445	     11.27218576	     -0.95910478	     -5.00367979	     32.24494406	    -10.56466735	      0.34623120	     31.31636012	     31.31636012	      9.70861118	    -14.55424459	     11.04132010	    -10.23088038	      5.59791552	      3.12252297	     24.96073240	    -19.07623754	     -1.59831855	     76.41265471	     45.18343030	      0.00000000	      0.00000000	     -0.20387070	    -10.57005175	     -4.02182038	     30.18878441	     45.52316414	      0.00000000	      0.00000000
      0.94892857	     -2.40846829	     -4.29704542	      8.02635453	      1.03008104	      0.93245667	      0.50511611	      7.18441269	      2.67065946	    -17.35020436	     14.58851167	     14.58851167	     11.44998158	     -0.93210841	     -5.14477887	     32.51148307	    -10.39451058	      0.82367145	     28.63772640	     28.63772640	      9.72092336	    -13.16372633	     11.25615525	     -9.99354159	      5.74532459	      3.52079752	     26.18579957	    -19.19355154	     -1.72279690	     77.22303821	     45.16698176	      0.00000000	      0.00000000	     -0.81902726	    -10.35912695	     -3.93944443	     29.88486985	     45.50301336	      0.00000000	      0.00000000
      0.96214286	     -2.41172188	     -4.14509621	      8.02880281	      1.02904927	      0.93249342	      0.50446998	      6.62435348	      2.56690508	    -17.40294021	     14.13462480	     14.13462480	     11.57911105	     -0.61145573	     -5.31689466	     32.19326878	    -10.04149713	      0.80872539	     26.02250622	     26.02250622	      9.77773595	    -11.49304502	     11.20816901	    -10.17890544	      5.56634470	      3.39570423	     27.36049560	    -18.63337417	     -1.56491870	     79.07414152	     45.10803030	      0.00000000	      0.00000000	     -1.67488007	    -10.31793164	     -3.68905867	     29.33690303	     45.45758792	      0.00000000	      0.00000000
